<svg width="89" height="16" viewBox="0 0 89 16" fill="none" xmlns="http://www.w3.org/2000/svg">
<mask id="path-1-outside-1_179_12" maskUnits="userSpaceOnUse" x="0" y="-0.22998" width="89" height="16" fill="black">
<rect fill="white" y="-0.22998" width="89" height="16"/>
<path d="M1 14.49V1.05002H6.47658C6.60269 1.05002 6.77083 1.05624 6.981 1.06869C7.19719 1.07491 7.38935 1.09357 7.55749 1.12469C8.33214 1.24913 8.96567 1.51357 9.45808 1.91802C9.95649 2.32246 10.3228 2.83269 10.557 3.44869C10.7912 4.05846 10.9083 4.7398 10.9083 5.49269C10.9083 6.24557 10.7882 6.93002 10.548 7.54602C10.3138 8.1558 9.94749 8.66291 9.44907 9.06735C8.95666 9.4718 8.32613 9.73624 7.55749 9.86069C7.38935 9.88557 7.19719 9.90424 6.981 9.91669C6.76482 9.92913 6.59668 9.93535 6.47658 9.93535H3.45005V14.49H1ZM3.45005 7.56469H6.36849C6.4946 7.56469 6.63271 7.55846 6.78284 7.54602C6.93296 7.53357 7.07108 7.50869 7.19719 7.47135C7.52746 7.37802 7.78268 7.22246 7.96283 7.00469C8.14298 6.78069 8.26608 6.53491 8.33214 6.26735C8.4042 5.99357 8.44023 5.73535 8.44023 5.49269C8.44023 5.25002 8.4042 4.99491 8.33214 4.72735C8.26608 4.45358 8.14298 4.2078 7.96283 3.99002C7.78268 3.76602 7.52746 3.60735 7.19719 3.51402C7.07108 3.47669 6.93296 3.4518 6.78284 3.43935C6.63271 3.42691 6.4946 3.42069 6.36849 3.42069H3.45005V7.56469Z"/>
<path d="M14.4283 14.49V1.05002H19.9049C20.031 1.05002 20.1991 1.05624 20.4093 1.06869C20.6255 1.07491 20.8176 1.09357 20.9858 1.12469C21.7604 1.24913 22.3939 1.51357 22.8863 1.91802C23.3848 2.32246 23.7511 2.83269 23.9853 3.44869C24.2195 4.05846 24.3366 4.7398 24.3366 5.49269C24.3366 6.61891 24.0663 7.58335 23.5259 8.38602C22.9854 9.18246 22.1387 9.67402 20.9858 9.86069L19.9049 9.93535H16.8783V14.49H14.4283ZM21.7424 14.49L19.1842 9.02069L21.7064 8.51669L24.5167 14.49H21.7424ZM16.8783 7.56469H19.7968C19.9229 7.56469 20.061 7.55846 20.2111 7.54602C20.3612 7.53357 20.4993 7.50869 20.6255 7.47135C20.9557 7.37802 21.2109 7.22246 21.3911 7.00469C21.5712 6.78069 21.6943 6.53491 21.7604 6.26735C21.8325 5.99357 21.8685 5.73535 21.8685 5.49269C21.8685 5.25002 21.8325 4.99491 21.7604 4.72735C21.6943 4.45358 21.5712 4.2078 21.3911 3.99002C21.2109 3.76602 20.9557 3.60735 20.6255 3.51402C20.4993 3.47669 20.3612 3.4518 20.2111 3.43935C20.061 3.42691 19.9229 3.42069 19.7968 3.42069H16.8783V7.56469Z"/>
<path d="M33.775 14.77C32.478 14.77 31.358 14.4776 30.4152 13.8927C29.4785 13.3078 28.7548 12.4896 28.2444 11.438C27.74 10.3865 27.4878 9.1638 27.4878 7.77002C27.4878 6.37624 27.74 5.15357 28.2444 4.10202C28.7548 3.05046 29.4785 2.23224 30.4152 1.64735C31.358 1.06246 32.478 0.77002 33.775 0.77002C35.0721 0.77002 36.1891 1.06246 37.1259 1.64735C38.0686 2.23224 38.7922 3.05046 39.2967 4.10202C39.8071 5.15357 40.0623 6.37624 40.0623 7.77002C40.0623 9.1638 39.8071 10.3865 39.2967 11.438C38.7922 12.4896 38.0686 13.3078 37.1259 13.8927C36.1891 14.4776 35.0721 14.77 33.775 14.77ZM33.775 12.3807C34.5977 12.3931 35.2823 12.2096 35.8288 11.83C36.3752 11.4505 36.7836 10.9122 37.0538 10.2154C37.33 9.51846 37.4681 8.70335 37.4681 7.77002C37.4681 6.83669 37.33 6.0278 37.0538 5.34335C36.7836 4.65891 36.3752 4.12691 35.8288 3.74735C35.2823 3.3678 34.5977 3.1718 33.775 3.15935C32.9524 3.14691 32.2678 3.33046 31.7213 3.71002C31.1749 4.08957 30.7635 4.6278 30.4873 5.32469C30.2171 6.02157 30.082 6.83669 30.082 7.77002C30.082 8.70335 30.2171 9.51224 30.4873 10.1967C30.7635 10.8811 31.1749 11.4131 31.7213 11.7927C32.2678 12.1722 32.9524 12.3682 33.775 12.3807Z"/>
<path d="M49.1385 14.77C47.8414 14.77 46.7215 14.4776 45.7787 13.8927C44.8419 13.3078 44.1183 12.4896 43.6079 11.438C43.1035 10.3865 42.8513 9.1638 42.8513 7.77002C42.8513 6.37624 43.1035 5.15357 43.6079 4.10202C44.1183 3.05046 44.8419 2.23224 45.7787 1.64735C46.7215 1.06246 47.8414 0.77002 49.1385 0.77002C50.4356 0.77002 51.5526 1.06246 52.4893 1.64735C53.4321 2.23224 54.1557 3.05046 54.6601 4.10202C55.1706 5.15357 55.4258 6.37624 55.4258 7.77002C55.4258 9.1638 55.1706 10.3865 54.6601 11.438C54.1557 12.4896 53.4321 13.3078 52.4893 13.8927C51.5526 14.4776 50.4356 14.77 49.1385 14.77ZM49.1385 12.3807C49.9612 12.3931 50.6458 12.2096 51.1923 11.83C51.7387 11.4505 52.147 10.9122 52.4173 10.2154C52.6935 9.51846 52.8316 8.70335 52.8316 7.77002C52.8316 6.83669 52.6935 6.0278 52.4173 5.34335C52.147 4.65891 51.7387 4.12691 51.1923 3.74735C50.6458 3.3678 49.9612 3.1718 49.1385 3.15935C48.3158 3.14691 47.6313 3.33046 47.0848 3.71002C46.5384 4.08957 46.127 4.6278 45.8508 5.32469C45.5806 6.02157 45.4454 6.83669 45.4454 7.77002C45.4454 8.70335 45.5806 9.51224 45.8508 10.1967C46.127 10.8811 46.5384 11.4131 47.0848 11.7927C47.6313 12.1722 48.3158 12.3682 49.1385 12.3807Z"/>
<path d="M58.9354 14.49V1.05002H61.1332L65.4208 9.97269L69.7084 1.05002H71.9062V14.49H69.6183V6.46335L65.8531 14.49H64.9884L61.2233 6.46335V14.49H58.9354Z"/>
<path d="M81.7127 14.77C80.4157 14.77 79.2957 14.4776 78.3529 13.8927C77.4161 13.3078 76.6925 12.4896 76.1821 11.438C75.6777 10.3865 75.4255 9.1638 75.4255 7.77002C75.4255 6.37624 75.6777 5.15357 76.1821 4.10202C76.6925 3.05046 77.4161 2.23224 78.3529 1.64735C79.2957 1.06246 80.4157 0.77002 81.7127 0.77002C83.0098 0.77002 84.1268 1.06246 85.0635 1.64735C86.0063 2.23224 86.7299 3.05046 87.2344 4.10202C87.7448 5.15357 88 6.37624 88 7.77002C88 9.1638 87.7448 10.3865 87.2344 11.438C86.7299 12.4896 86.0063 13.3078 85.0635 13.8927C84.1268 14.4776 83.0098 14.77 81.7127 14.77ZM81.7127 12.3807C82.5354 12.3931 83.22 12.2096 83.7665 11.83C84.3129 11.4505 84.7213 10.9122 84.9915 10.2154C85.2677 9.51846 85.4058 8.70335 85.4058 7.77002C85.4058 6.83669 85.2677 6.0278 84.9915 5.34335C84.7213 4.65891 84.3129 4.12691 83.7665 3.74735C83.22 3.3678 82.5354 3.1718 81.7127 3.15935C80.8901 3.14691 80.2055 3.33046 79.659 3.71002C79.1126 4.08957 78.7012 4.6278 78.425 5.32469C78.1548 6.02157 78.0197 6.83669 78.0197 7.77002C78.0197 8.70335 78.1548 9.51224 78.425 10.1967C78.7012 10.8811 79.1126 11.4131 79.659 11.7927C80.2055 12.1722 80.8901 12.3682 81.7127 12.3807Z"/>
</mask>
<path d="M1 14.49V1.05002H6.47658C6.60269 1.05002 6.77083 1.05624 6.981 1.06869C7.19719 1.07491 7.38935 1.09357 7.55749 1.12469C8.33214 1.24913 8.96567 1.51357 9.45808 1.91802C9.95649 2.32246 10.3228 2.83269 10.557 3.44869C10.7912 4.05846 10.9083 4.7398 10.9083 5.49269C10.9083 6.24557 10.7882 6.93002 10.548 7.54602C10.3138 8.1558 9.94749 8.66291 9.44907 9.06735C8.95666 9.4718 8.32613 9.73624 7.55749 9.86069C7.38935 9.88557 7.19719 9.90424 6.981 9.91669C6.76482 9.92913 6.59668 9.93535 6.47658 9.93535H3.45005V14.49H1ZM3.45005 7.56469H6.36849C6.4946 7.56469 6.63271 7.55846 6.78284 7.54602C6.93296 7.53357 7.07108 7.50869 7.19719 7.47135C7.52746 7.37802 7.78268 7.22246 7.96283 7.00469C8.14298 6.78069 8.26608 6.53491 8.33214 6.26735C8.4042 5.99357 8.44023 5.73535 8.44023 5.49269C8.44023 5.25002 8.4042 4.99491 8.33214 4.72735C8.26608 4.45358 8.14298 4.2078 7.96283 3.99002C7.78268 3.76602 7.52746 3.60735 7.19719 3.51402C7.07108 3.47669 6.93296 3.4518 6.78284 3.43935C6.63271 3.42691 6.4946 3.42069 6.36849 3.42069H3.45005V7.56469Z" fill="white"/>
<path d="M14.4283 14.49V1.05002H19.9049C20.031 1.05002 20.1991 1.05624 20.4093 1.06869C20.6255 1.07491 20.8176 1.09357 20.9858 1.12469C21.7604 1.24913 22.3939 1.51357 22.8863 1.91802C23.3848 2.32246 23.7511 2.83269 23.9853 3.44869C24.2195 4.05846 24.3366 4.7398 24.3366 5.49269C24.3366 6.61891 24.0663 7.58335 23.5259 8.38602C22.9854 9.18246 22.1387 9.67402 20.9858 9.86069L19.9049 9.93535H16.8783V14.49H14.4283ZM21.7424 14.49L19.1842 9.02069L21.7064 8.51669L24.5167 14.49H21.7424ZM16.8783 7.56469H19.7968C19.9229 7.56469 20.061 7.55846 20.2111 7.54602C20.3612 7.53357 20.4993 7.50869 20.6255 7.47135C20.9557 7.37802 21.2109 7.22246 21.3911 7.00469C21.5712 6.78069 21.6943 6.53491 21.7604 6.26735C21.8325 5.99357 21.8685 5.73535 21.8685 5.49269C21.8685 5.25002 21.8325 4.99491 21.7604 4.72735C21.6943 4.45358 21.5712 4.2078 21.3911 3.99002C21.2109 3.76602 20.9557 3.60735 20.6255 3.51402C20.4993 3.47669 20.3612 3.4518 20.2111 3.43935C20.061 3.42691 19.9229 3.42069 19.7968 3.42069H16.8783V7.56469Z" fill="white"/>
<path d="M33.775 14.77C32.478 14.77 31.358 14.4776 30.4152 13.8927C29.4785 13.3078 28.7548 12.4896 28.2444 11.438C27.74 10.3865 27.4878 9.1638 27.4878 7.77002C27.4878 6.37624 27.74 5.15357 28.2444 4.10202C28.7548 3.05046 29.4785 2.23224 30.4152 1.64735C31.358 1.06246 32.478 0.77002 33.775 0.77002C35.0721 0.77002 36.1891 1.06246 37.1259 1.64735C38.0686 2.23224 38.7922 3.05046 39.2967 4.10202C39.8071 5.15357 40.0623 6.37624 40.0623 7.77002C40.0623 9.1638 39.8071 10.3865 39.2967 11.438C38.7922 12.4896 38.0686 13.3078 37.1259 13.8927C36.1891 14.4776 35.0721 14.77 33.775 14.77ZM33.775 12.3807C34.5977 12.3931 35.2823 12.2096 35.8288 11.83C36.3752 11.4505 36.7836 10.9122 37.0538 10.2154C37.33 9.51846 37.4681 8.70335 37.4681 7.77002C37.4681 6.83669 37.33 6.0278 37.0538 5.34335C36.7836 4.65891 36.3752 4.12691 35.8288 3.74735C35.2823 3.3678 34.5977 3.1718 33.775 3.15935C32.9524 3.14691 32.2678 3.33046 31.7213 3.71002C31.1749 4.08957 30.7635 4.6278 30.4873 5.32469C30.2171 6.02157 30.082 6.83669 30.082 7.77002C30.082 8.70335 30.2171 9.51224 30.4873 10.1967C30.7635 10.8811 31.1749 11.4131 31.7213 11.7927C32.2678 12.1722 32.9524 12.3682 33.775 12.3807Z" fill="white"/>
<path d="M49.1385 14.77C47.8414 14.77 46.7215 14.4776 45.7787 13.8927C44.8419 13.3078 44.1183 12.4896 43.6079 11.438C43.1035 10.3865 42.8513 9.1638 42.8513 7.77002C42.8513 6.37624 43.1035 5.15357 43.6079 4.10202C44.1183 3.05046 44.8419 2.23224 45.7787 1.64735C46.7215 1.06246 47.8414 0.77002 49.1385 0.77002C50.4356 0.77002 51.5526 1.06246 52.4893 1.64735C53.4321 2.23224 54.1557 3.05046 54.6601 4.10202C55.1706 5.15357 55.4258 6.37624 55.4258 7.77002C55.4258 9.1638 55.1706 10.3865 54.6601 11.438C54.1557 12.4896 53.4321 13.3078 52.4893 13.8927C51.5526 14.4776 50.4356 14.77 49.1385 14.77ZM49.1385 12.3807C49.9612 12.3931 50.6458 12.2096 51.1923 11.83C51.7387 11.4505 52.147 10.9122 52.4173 10.2154C52.6935 9.51846 52.8316 8.70335 52.8316 7.77002C52.8316 6.83669 52.6935 6.0278 52.4173 5.34335C52.147 4.65891 51.7387 4.12691 51.1923 3.74735C50.6458 3.3678 49.9612 3.1718 49.1385 3.15935C48.3158 3.14691 47.6313 3.33046 47.0848 3.71002C46.5384 4.08957 46.127 4.6278 45.8508 5.32469C45.5806 6.02157 45.4454 6.83669 45.4454 7.77002C45.4454 8.70335 45.5806 9.51224 45.8508 10.1967C46.127 10.8811 46.5384 11.4131 47.0848 11.7927C47.6313 12.1722 48.3158 12.3682 49.1385 12.3807Z" fill="white"/>
<path d="M58.9354 14.49V1.05002H61.1332L65.4208 9.97269L69.7084 1.05002H71.9062V14.49H69.6183V6.46335L65.8531 14.49H64.9884L61.2233 6.46335V14.49H58.9354Z" fill="white"/>
<path d="M81.7127 14.77C80.4157 14.77 79.2957 14.4776 78.3529 13.8927C77.4161 13.3078 76.6925 12.4896 76.1821 11.438C75.6777 10.3865 75.4255 9.1638 75.4255 7.77002C75.4255 6.37624 75.6777 5.15357 76.1821 4.10202C76.6925 3.05046 77.4161 2.23224 78.3529 1.64735C79.2957 1.06246 80.4157 0.77002 81.7127 0.77002C83.0098 0.77002 84.1268 1.06246 85.0635 1.64735C86.0063 2.23224 86.7299 3.05046 87.2344 4.10202C87.7448 5.15357 88 6.37624 88 7.77002C88 9.1638 87.7448 10.3865 87.2344 11.438C86.7299 12.4896 86.0063 13.3078 85.0635 13.8927C84.1268 14.4776 83.0098 14.77 81.7127 14.77ZM81.7127 12.3807C82.5354 12.3931 83.22 12.2096 83.7665 11.83C84.3129 11.4505 84.7213 10.9122 84.9915 10.2154C85.2677 9.51846 85.4058 8.70335 85.4058 7.77002C85.4058 6.83669 85.2677 6.0278 84.9915 5.34335C84.7213 4.65891 84.3129 4.12691 83.7665 3.74735C83.22 3.3678 82.5354 3.1718 81.7127 3.15935C80.8901 3.14691 80.2055 3.33046 79.659 3.71002C79.1126 4.08957 78.7012 4.6278 78.425 5.32469C78.1548 6.02157 78.0197 6.83669 78.0197 7.77002C78.0197 8.70335 78.1548 9.51224 78.425 10.1967C78.7012 10.8811 79.1126 11.4131 79.659 11.7927C80.2055 12.1722 80.8901 12.3682 81.7127 12.3807Z" fill="white"/>
<path d="M1 14.49V1.05002H6.47658C6.60269 1.05002 6.77083 1.05624 6.981 1.06869C7.19719 1.07491 7.38935 1.09357 7.55749 1.12469C8.33214 1.24913 8.96567 1.51357 9.45808 1.91802C9.95649 2.32246 10.3228 2.83269 10.557 3.44869C10.7912 4.05846 10.9083 4.7398 10.9083 5.49269C10.9083 6.24557 10.7882 6.93002 10.548 7.54602C10.3138 8.1558 9.94749 8.66291 9.44907 9.06735C8.95666 9.4718 8.32613 9.73624 7.55749 9.86069C7.38935 9.88557 7.19719 9.90424 6.981 9.91669C6.76482 9.92913 6.59668 9.93535 6.47658 9.93535H3.45005V14.49H1ZM3.45005 7.56469H6.36849C6.4946 7.56469 6.63271 7.55846 6.78284 7.54602C6.93296 7.53357 7.07108 7.50869 7.19719 7.47135C7.52746 7.37802 7.78268 7.22246 7.96283 7.00469C8.14298 6.78069 8.26608 6.53491 8.33214 6.26735C8.4042 5.99357 8.44023 5.73535 8.44023 5.49269C8.44023 5.25002 8.4042 4.99491 8.33214 4.72735C8.26608 4.45358 8.14298 4.2078 7.96283 3.99002C7.78268 3.76602 7.52746 3.60735 7.19719 3.51402C7.07108 3.47669 6.93296 3.4518 6.78284 3.43935C6.63271 3.42691 6.4946 3.42069 6.36849 3.42069H3.45005V7.56469Z" stroke="white" mask="url(#path-1-outside-1_179_12)"/>
<path d="M14.4283 14.49V1.05002H19.9049C20.031 1.05002 20.1991 1.05624 20.4093 1.06869C20.6255 1.07491 20.8176 1.09357 20.9858 1.12469C21.7604 1.24913 22.3939 1.51357 22.8863 1.91802C23.3848 2.32246 23.7511 2.83269 23.9853 3.44869C24.2195 4.05846 24.3366 4.7398 24.3366 5.49269C24.3366 6.61891 24.0663 7.58335 23.5259 8.38602C22.9854 9.18246 22.1387 9.67402 20.9858 9.86069L19.9049 9.93535H16.8783V14.49H14.4283ZM21.7424 14.49L19.1842 9.02069L21.7064 8.51669L24.5167 14.49H21.7424ZM16.8783 7.56469H19.7968C19.9229 7.56469 20.061 7.55846 20.2111 7.54602C20.3612 7.53357 20.4993 7.50869 20.6255 7.47135C20.9557 7.37802 21.2109 7.22246 21.3911 7.00469C21.5712 6.78069 21.6943 6.53491 21.7604 6.26735C21.8325 5.99357 21.8685 5.73535 21.8685 5.49269C21.8685 5.25002 21.8325 4.99491 21.7604 4.72735C21.6943 4.45358 21.5712 4.2078 21.3911 3.99002C21.2109 3.76602 20.9557 3.60735 20.6255 3.51402C20.4993 3.47669 20.3612 3.4518 20.2111 3.43935C20.061 3.42691 19.9229 3.42069 19.7968 3.42069H16.8783V7.56469Z" stroke="white" mask="url(#path-1-outside-1_179_12)"/>
<path d="M33.775 14.77C32.478 14.77 31.358 14.4776 30.4152 13.8927C29.4785 13.3078 28.7548 12.4896 28.2444 11.438C27.74 10.3865 27.4878 9.1638 27.4878 7.77002C27.4878 6.37624 27.74 5.15357 28.2444 4.10202C28.7548 3.05046 29.4785 2.23224 30.4152 1.64735C31.358 1.06246 32.478 0.77002 33.775 0.77002C35.0721 0.77002 36.1891 1.06246 37.1259 1.64735C38.0686 2.23224 38.7922 3.05046 39.2967 4.10202C39.8071 5.15357 40.0623 6.37624 40.0623 7.77002C40.0623 9.1638 39.8071 10.3865 39.2967 11.438C38.7922 12.4896 38.0686 13.3078 37.1259 13.8927C36.1891 14.4776 35.0721 14.77 33.775 14.77ZM33.775 12.3807C34.5977 12.3931 35.2823 12.2096 35.8288 11.83C36.3752 11.4505 36.7836 10.9122 37.0538 10.2154C37.33 9.51846 37.4681 8.70335 37.4681 7.77002C37.4681 6.83669 37.33 6.0278 37.0538 5.34335C36.7836 4.65891 36.3752 4.12691 35.8288 3.74735C35.2823 3.3678 34.5977 3.1718 33.775 3.15935C32.9524 3.14691 32.2678 3.33046 31.7213 3.71002C31.1749 4.08957 30.7635 4.6278 30.4873 5.32469C30.2171 6.02157 30.082 6.83669 30.082 7.77002C30.082 8.70335 30.2171 9.51224 30.4873 10.1967C30.7635 10.8811 31.1749 11.4131 31.7213 11.7927C32.2678 12.1722 32.9524 12.3682 33.775 12.3807Z" stroke="white" mask="url(#path-1-outside-1_179_12)"/>
<path d="M49.1385 14.77C47.8414 14.77 46.7215 14.4776 45.7787 13.8927C44.8419 13.3078 44.1183 12.4896 43.6079 11.438C43.1035 10.3865 42.8513 9.1638 42.8513 7.77002C42.8513 6.37624 43.1035 5.15357 43.6079 4.10202C44.1183 3.05046 44.8419 2.23224 45.7787 1.64735C46.7215 1.06246 47.8414 0.77002 49.1385 0.77002C50.4356 0.77002 51.5526 1.06246 52.4893 1.64735C53.4321 2.23224 54.1557 3.05046 54.6601 4.10202C55.1706 5.15357 55.4258 6.37624 55.4258 7.77002C55.4258 9.1638 55.1706 10.3865 54.6601 11.438C54.1557 12.4896 53.4321 13.3078 52.4893 13.8927C51.5526 14.4776 50.4356 14.77 49.1385 14.77ZM49.1385 12.3807C49.9612 12.3931 50.6458 12.2096 51.1923 11.83C51.7387 11.4505 52.147 10.9122 52.4173 10.2154C52.6935 9.51846 52.8316 8.70335 52.8316 7.77002C52.8316 6.83669 52.6935 6.0278 52.4173 5.34335C52.147 4.65891 51.7387 4.12691 51.1923 3.74735C50.6458 3.3678 49.9612 3.1718 49.1385 3.15935C48.3158 3.14691 47.6313 3.33046 47.0848 3.71002C46.5384 4.08957 46.127 4.6278 45.8508 5.32469C45.5806 6.02157 45.4454 6.83669 45.4454 7.77002C45.4454 8.70335 45.5806 9.51224 45.8508 10.1967C46.127 10.8811 46.5384 11.4131 47.0848 11.7927C47.6313 12.1722 48.3158 12.3682 49.1385 12.3807Z" stroke="white" mask="url(#path-1-outside-1_179_12)"/>
<path d="M58.9354 14.49V1.05002H61.1332L65.4208 9.97269L69.7084 1.05002H71.9062V14.49H69.6183V6.46335L65.8531 14.49H64.9884L61.2233 6.46335V14.49H58.9354Z" stroke="white" mask="url(#path-1-outside-1_179_12)"/>
<path d="M81.7127 14.77C80.4157 14.77 79.2957 14.4776 78.3529 13.8927C77.4161 13.3078 76.6925 12.4896 76.1821 11.438C75.6777 10.3865 75.4255 9.1638 75.4255 7.77002C75.4255 6.37624 75.6777 5.15357 76.1821 4.10202C76.6925 3.05046 77.4161 2.23224 78.3529 1.64735C79.2957 1.06246 80.4157 0.77002 81.7127 0.77002C83.0098 0.77002 84.1268 1.06246 85.0635 1.64735C86.0063 2.23224 86.7299 3.05046 87.2344 4.10202C87.7448 5.15357 88 6.37624 88 7.77002C88 9.1638 87.7448 10.3865 87.2344 11.438C86.7299 12.4896 86.0063 13.3078 85.0635 13.8927C84.1268 14.4776 83.0098 14.77 81.7127 14.77ZM81.7127 12.3807C82.5354 12.3931 83.22 12.2096 83.7665 11.83C84.3129 11.4505 84.7213 10.9122 84.9915 10.2154C85.2677 9.51846 85.4058 8.70335 85.4058 7.77002C85.4058 6.83669 85.2677 6.0278 84.9915 5.34335C84.7213 4.65891 84.3129 4.12691 83.7665 3.74735C83.22 3.3678 82.5354 3.1718 81.7127 3.15935C80.8901 3.14691 80.2055 3.33046 79.659 3.71002C79.1126 4.08957 78.7012 4.6278 78.425 5.32469C78.1548 6.02157 78.0197 6.83669 78.0197 7.77002C78.0197 8.70335 78.1548 9.51224 78.425 10.1967C78.7012 10.8811 79.1126 11.4131 79.659 11.7927C80.2055 12.1722 80.8901 12.3682 81.7127 12.3807Z" stroke="white" mask="url(#path-1-outside-1_179_12)"/>
</svg>
